<svg width="172" height="27" viewBox="0 0 172 27" fill="none" xmlns="http://www.w3.org/2000/svg">
<g clip-path="url(#paint0_diamond_36_31_clip_path)" data-figma-skip-parse="true"><g transform="matrix(2.67138e-08 -0.0265 -0.526428 -5.30676e-07 80.7039 26.244)"><rect x="0" y="0" width="1283.02" height="210.855" fill="url(#paint0_diamond_36_31)" opacity="1" shape-rendering="crispEdges"/><rect x="0" y="0" width="1283.02" height="210.855" transform="scale(1 -1)" fill="url(#paint0_diamond_36_31)" opacity="1" shape-rendering="crispEdges"/><rect x="0" y="0" width="1283.02" height="210.855" transform="scale(-1 1)" fill="url(#paint0_diamond_36_31)" opacity="1" shape-rendering="crispEdges"/><rect x="0" y="0" width="1283.02" height="210.855" transform="scale(-1)" fill="url(#paint0_diamond_36_31)" opacity="1" shape-rendering="crispEdges"/></g></g><path d="M15.696 22.392H16.38V26.244L-2.04295e-05 26.28V25.56C0.32398 25.56 0.79198 20.628 0.79198 14.58C0.79198 8.53202 0.35998 3.60002 -2.04295e-05 3.60002V2.91602H7.84798V3.60002C7.48798 3.60002 7.01998 8.64002 7.01998 14.256C7.01998 19.512 7.30798 23.976 7.66798 25.2C9.89998 25.2 14.292 25.308 15.696 22.392ZM26.2139 8.78402C31.9019 8.78402 35.0339 12.744 35.0339 17.604C35.0339 22.5 31.9019 26.46 26.2139 26.46C20.4899 26.46 17.3939 22.5 17.3939 17.604C17.3939 12.744 20.4899 8.78402 26.2139 8.78402ZM26.2139 24.624C27.7619 24.624 28.9859 21.492 28.9859 17.604C28.9859 13.752 27.7619 10.62 26.2139 10.62C24.6659 10.62 23.4059 13.752 23.4059 17.604C23.4059 21.492 24.6659 24.624 26.2139 24.624ZM54.5808 17.856H55.4448C55.4448 17.856 54.0048 26.496 45.2208 26.496C41.1528 26.496 38.2728 23.508 37.3008 20.664C37.0128 19.728 36.8688 18.792 36.8688 17.856C36.8688 14.004 39.3888 10.584 43.0608 9.50402C43.3488 9.43202 44.3568 9.18002 45.7248 9.18002C50.2608 9.18002 52.0608 11.844 52.3848 12.384C52.5648 12.636 52.6728 12.924 52.7808 13.248C52.9248 13.608 52.9608 14.004 52.9968 14.364C52.9968 14.724 52.9608 15.084 52.8528 15.408C52.7808 15.624 52.7088 15.84 52.6008 15.984C52.3848 16.308 52.1328 16.56 51.8088 16.776C51.3768 17.1 50.8008 17.244 50.2248 17.208C49.5048 17.208 48.9288 17.028 48.4248 16.488C48.2808 16.38 48.1728 16.236 48.0648 16.092C47.7408 15.624 47.5608 15.12 47.5248 14.508C47.5248 14.256 47.5608 14.04 47.5968 13.824L47.7048 13.392C47.7408 13.212 47.7408 13.068 47.7768 12.996C47.9568 11.808 47.5608 10.44 46.1568 10.476C44.2848 10.476 42.4488 12.816 42.4488 15.984C42.4488 20.16 44.9328 22.428 48.2088 22.428C52.8888 22.428 54.5808 17.856 54.5808 17.856ZM72.644 15.048C73.112 19.188 73.292 25.416 75.056 25.416V26.1H69.188C68.288 26.1 67.46 25.488 67.244 24.624C66.164 25.596 64.04 26.604 61.952 26.496C58.532 26.244 57.02 24.408 57.02 22.284C57.02 17.388 63.32 16.416 66.992 15.876C66.992 15.732 67.028 15.588 67.028 15.408C67.028 12.708 66.524 10.512 64.328 10.512C62.852 10.512 61.952 11.772 62.132 12.996C62.132 13.104 62.168 13.248 62.204 13.392L62.312 13.824C62.348 14.04 62.384 14.256 62.348 14.508C62.348 15.084 62.168 15.624 61.844 16.056C61.736 16.2 61.628 16.344 61.52 16.452C60.98 16.956 60.44 17.136 59.72 17.172C59.144 17.172 58.604 17.028 58.172 16.74C57.848 16.524 57.596 16.272 57.416 15.948C57.308 15.804 57.2 15.588 57.128 15.372C57.02 15.048 56.984 14.688 57.02 14.364C57.02 14.004 57.092 13.608 57.2 13.248C57.308 12.96 57.452 12.672 57.596 12.384C57.92 11.88 58.424 11.34 59.108 10.836C59.72 10.368 60.404 10.044 61.16 9.79202C62.024 9.54002 62.744 9.43202 63.392 9.36002C64.796 9.18002 71.816 7.99202 72.644 15.048ZM62.312 21.132C62.312 24.624 65.408 24.768 67.064 23.652C66.884 22.032 66.956 19.548 66.992 17.1C65.336 17.46 62.312 18.468 62.312 21.132ZM83.5501 15.66C83.5501 15.66 83.4421 25.416 84.3781 25.416V26.1H76.5301V25.416C77.1421 25.416 77.3941 18.54 77.3941 12.06C77.3941 7.74002 76.9981 3.88802 76.5301 3.52802V2.73602C79.9501 2.26802 81.3901 1.62002 83.5861 1.74046e-05H84.3781C83.6941 4.64402 83.5141 10.656 83.5501 15.66ZM97.5586 2.91602L113.939 2.95202V6.80402H113.255C111.851 3.85202 107.459 3.96002 105.191 3.96002C104.903 5.14802 104.615 9.18002 104.579 14.004C106.883 13.932 109.799 13.5 110.915 11.196H111.599V17.964H110.915C109.799 15.66 106.883 15.228 104.579 15.156C104.579 20.664 105.047 25.56 105.407 25.56V26.28H97.5226V25.56C97.9186 25.56 98.3506 20.628 98.3506 14.58C98.3506 8.56802 97.8826 3.60002 97.5586 3.60002V2.91602ZM129.949 15.048C130.417 19.188 130.597 25.416 132.361 25.416V26.1H126.493C125.593 26.1 124.765 25.488 124.549 24.624C123.469 25.596 121.345 26.604 119.257 26.496C115.837 26.244 114.325 24.408 114.325 22.284C114.325 17.388 120.625 16.416 124.297 15.876C124.297 15.732 124.333 15.588 124.333 15.408C124.333 12.708 123.829 10.512 121.633 10.512C120.157 10.512 119.257 11.772 119.437 12.996C119.437 13.104 119.473 13.248 119.509 13.392L119.617 13.824C119.653 14.04 119.689 14.256 119.653 14.508C119.653 15.084 119.473 15.624 119.149 16.056C119.041 16.2 118.933 16.344 118.825 16.452C118.285 16.956 117.745 17.136 117.025 17.172C116.449 17.172 115.909 17.028 115.477 16.74C115.153 16.524 114.901 16.272 114.721 15.948C114.613 15.804 114.505 15.588 114.433 15.372C114.325 15.048 114.289 14.688 114.325 14.364C114.325 14.004 114.397 13.608 114.505 13.248C114.613 12.96 114.757 12.672 114.901 12.384C115.225 11.88 115.729 11.34 116.413 10.836C117.025 10.368 117.709 10.044 118.465 9.79202C119.329 9.54002 120.049 9.43202 120.697 9.36002C122.101 9.18002 129.121 7.99202 129.949 15.048ZM119.617 21.132C119.617 24.624 122.713 24.768 124.369 23.652C124.189 22.032 124.261 19.548 124.297 17.1C122.641 17.46 119.617 18.468 119.617 21.132ZM150.909 17.856H151.773C151.773 17.856 150.333 26.496 141.549 26.496C137.481 26.496 134.601 23.508 133.629 20.664C133.341 19.728 133.197 18.792 133.197 17.856C133.197 14.004 135.717 10.584 139.389 9.50402C139.677 9.43202 140.685 9.18002 142.053 9.18002C146.589 9.18002 148.389 11.844 148.713 12.384C148.893 12.636 149.001 12.924 149.109 13.248C149.253 13.608 149.289 14.004 149.325 14.364C149.325 14.724 149.289 15.084 149.181 15.408C149.109 15.624 149.037 15.84 148.929 15.984C148.713 16.308 148.461 16.56 148.137 16.776C147.705 17.1 147.129 17.244 146.553 17.208C145.833 17.208 145.257 17.028 144.753 16.488C144.609 16.38 144.501 16.236 144.393 16.092C144.069 15.624 143.889 15.12 143.853 14.508C143.853 14.256 143.889 14.04 143.925 13.824L144.033 13.392C144.069 13.212 144.069 13.068 144.105 12.996C144.285 11.808 143.889 10.44 142.485 10.476C140.613 10.476 138.777 12.816 138.777 15.984C138.777 20.16 141.261 22.428 144.537 22.428C149.217 22.428 150.909 17.856 150.909 17.856ZM170.772 17.856H171.636C171.636 17.856 170.196 26.496 161.412 26.496C157.344 26.496 154.464 23.508 153.492 20.664C153.204 19.728 153.024 18.792 153.024 17.856C153.024 14.004 155.58 10.584 159.252 9.50402C159.54 9.43202 160.548 9.18002 161.916 9.18002C166.452 9.18002 168.216 11.844 168.576 12.384C169.764 14.112 169.188 16.164 168.324 17.1C165.948 19.656 161.268 19.008 158.928 18.468C159.72 21.456 162.024 22.428 164.4 22.428C169.08 22.428 170.772 17.856 170.772 17.856ZM158.64 16.056C158.64 16.596 158.676 17.064 158.748 17.532C166.164 16.956 165.516 10.476 162.348 10.476C160.26 10.476 158.64 13.032 158.64 16.056Z" data-figma-gradient-fill="{&#34;type&#34;:&#34;GRADIENT_DIAMOND&#34;,&#34;stops&#34;:[{&#34;color&#34;:{&#34;r&#34;:0.67058825492858887,&#34;g&#34;:0.34117648005485535,&#34;b&#34;:0.17647059261798859,&#34;a&#34;:1.0},&#34;position&#34;:0.0},{&#34;color&#34;:{&#34;r&#34;:0.925781250,&#34;g&#34;:0.60574328899383545,&#34;b&#34;:0.32170906662940979,&#34;a&#34;:1.0},&#34;position&#34;:0.44062486290931702},{&#34;color&#34;:{&#34;r&#34;:0.64661461114883423,&#34;g&#34;:0.27804082632064819,&#34;b&#34;:0.057656534016132355,&#34;a&#34;:1.0},&#34;position&#34;:0.99989998340606689},{&#34;color&#34;:{&#34;r&#34;:0.67161458730697632,&#34;g&#34;:0.34458318352699280,&#34;b&#34;:0.16062788665294647,&#34;a&#34;:1.0},&#34;position&#34;:1.0}],&#34;stopsVar&#34;:[],&#34;transform&#34;:{&#34;m00&#34;:5.3427691454999149e-05,&#34;m01&#34;:-1052.8568115234375,&#34;m02&#34;:607.132324218750,&#34;m10&#34;:-53.000015258789062,&#34;m11&#34;:-0.0010613526683300734,&#34;m12&#34;:52.744564056396484},&#34;opacity&#34;:1.0,&#34;blendMode&#34;:&#34;NORMAL&#34;,&#34;visible&#34;:true}"/>
<defs>
<clipPath id="paint0_diamond_36_31_clip_path"><path d="M15.696 22.392H16.38V26.244L-2.04295e-05 26.28V25.56C0.32398 25.56 0.79198 20.628 0.79198 14.58C0.79198 8.53202 0.35998 3.60002 -2.04295e-05 3.60002V2.91602H7.84798V3.60002C7.48798 3.60002 7.01998 8.64002 7.01998 14.256C7.01998 19.512 7.30798 23.976 7.66798 25.2C9.89998 25.2 14.292 25.308 15.696 22.392ZM26.2139 8.78402C31.9019 8.78402 35.0339 12.744 35.0339 17.604C35.0339 22.5 31.9019 26.46 26.2139 26.46C20.4899 26.46 17.3939 22.5 17.3939 17.604C17.3939 12.744 20.4899 8.78402 26.2139 8.78402ZM26.2139 24.624C27.7619 24.624 28.9859 21.492 28.9859 17.604C28.9859 13.752 27.7619 10.62 26.2139 10.62C24.6659 10.62 23.4059 13.752 23.4059 17.604C23.4059 21.492 24.6659 24.624 26.2139 24.624ZM54.5808 17.856H55.4448C55.4448 17.856 54.0048 26.496 45.2208 26.496C41.1528 26.496 38.2728 23.508 37.3008 20.664C37.0128 19.728 36.8688 18.792 36.8688 17.856C36.8688 14.004 39.3888 10.584 43.0608 9.50402C43.3488 9.43202 44.3568 9.18002 45.7248 9.18002C50.2608 9.18002 52.0608 11.844 52.3848 12.384C52.5648 12.636 52.6728 12.924 52.7808 13.248C52.9248 13.608 52.9608 14.004 52.9968 14.364C52.9968 14.724 52.9608 15.084 52.8528 15.408C52.7808 15.624 52.7088 15.84 52.6008 15.984C52.3848 16.308 52.1328 16.56 51.8088 16.776C51.3768 17.1 50.8008 17.244 50.2248 17.208C49.5048 17.208 48.9288 17.028 48.4248 16.488C48.2808 16.38 48.1728 16.236 48.0648 16.092C47.7408 15.624 47.5608 15.12 47.5248 14.508C47.5248 14.256 47.5608 14.04 47.5968 13.824L47.7048 13.392C47.7408 13.212 47.7408 13.068 47.7768 12.996C47.9568 11.808 47.5608 10.44 46.1568 10.476C44.2848 10.476 42.4488 12.816 42.4488 15.984C42.4488 20.16 44.9328 22.428 48.2088 22.428C52.8888 22.428 54.5808 17.856 54.5808 17.856ZM72.644 15.048C73.112 19.188 73.292 25.416 75.056 25.416V26.1H69.188C68.288 26.1 67.46 25.488 67.244 24.624C66.164 25.596 64.04 26.604 61.952 26.496C58.532 26.244 57.02 24.408 57.02 22.284C57.02 17.388 63.32 16.416 66.992 15.876C66.992 15.732 67.028 15.588 67.028 15.408C67.028 12.708 66.524 10.512 64.328 10.512C62.852 10.512 61.952 11.772 62.132 12.996C62.132 13.104 62.168 13.248 62.204 13.392L62.312 13.824C62.348 14.04 62.384 14.256 62.348 14.508C62.348 15.084 62.168 15.624 61.844 16.056C61.736 16.2 61.628 16.344 61.52 16.452C60.98 16.956 60.44 17.136 59.72 17.172C59.144 17.172 58.604 17.028 58.172 16.74C57.848 16.524 57.596 16.272 57.416 15.948C57.308 15.804 57.2 15.588 57.128 15.372C57.02 15.048 56.984 14.688 57.02 14.364C57.02 14.004 57.092 13.608 57.2 13.248C57.308 12.96 57.452 12.672 57.596 12.384C57.92 11.88 58.424 11.34 59.108 10.836C59.72 10.368 60.404 10.044 61.16 9.79202C62.024 9.54002 62.744 9.43202 63.392 9.36002C64.796 9.18002 71.816 7.99202 72.644 15.048ZM62.312 21.132C62.312 24.624 65.408 24.768 67.064 23.652C66.884 22.032 66.956 19.548 66.992 17.1C65.336 17.46 62.312 18.468 62.312 21.132ZM83.5501 15.66C83.5501 15.66 83.4421 25.416 84.3781 25.416V26.1H76.5301V25.416C77.1421 25.416 77.3941 18.54 77.3941 12.06C77.3941 7.74002 76.9981 3.88802 76.5301 3.52802V2.73602C79.9501 2.26802 81.3901 1.62002 83.5861 1.74046e-05H84.3781C83.6941 4.64402 83.5141 10.656 83.5501 15.66ZM97.5586 2.91602L113.939 2.95202V6.80402H113.255C111.851 3.85202 107.459 3.96002 105.191 3.96002C104.903 5.14802 104.615 9.18002 104.579 14.004C106.883 13.932 109.799 13.5 110.915 11.196H111.599V17.964H110.915C109.799 15.66 106.883 15.228 104.579 15.156C104.579 20.664 105.047 25.56 105.407 25.56V26.28H97.5226V25.56C97.9186 25.56 98.3506 20.628 98.3506 14.58C98.3506 8.56802 97.8826 3.60002 97.5586 3.60002V2.91602ZM129.949 15.048C130.417 19.188 130.597 25.416 132.361 25.416V26.1H126.493C125.593 26.1 124.765 25.488 124.549 24.624C123.469 25.596 121.345 26.604 119.257 26.496C115.837 26.244 114.325 24.408 114.325 22.284C114.325 17.388 120.625 16.416 124.297 15.876C124.297 15.732 124.333 15.588 124.333 15.408C124.333 12.708 123.829 10.512 121.633 10.512C120.157 10.512 119.257 11.772 119.437 12.996C119.437 13.104 119.473 13.248 119.509 13.392L119.617 13.824C119.653 14.04 119.689 14.256 119.653 14.508C119.653 15.084 119.473 15.624 119.149 16.056C119.041 16.2 118.933 16.344 118.825 16.452C118.285 16.956 117.745 17.136 117.025 17.172C116.449 17.172 115.909 17.028 115.477 16.74C115.153 16.524 114.901 16.272 114.721 15.948C114.613 15.804 114.505 15.588 114.433 15.372C114.325 15.048 114.289 14.688 114.325 14.364C114.325 14.004 114.397 13.608 114.505 13.248C114.613 12.96 114.757 12.672 114.901 12.384C115.225 11.88 115.729 11.34 116.413 10.836C117.025 10.368 117.709 10.044 118.465 9.79202C119.329 9.54002 120.049 9.43202 120.697 9.36002C122.101 9.18002 129.121 7.99202 129.949 15.048ZM119.617 21.132C119.617 24.624 122.713 24.768 124.369 23.652C124.189 22.032 124.261 19.548 124.297 17.1C122.641 17.46 119.617 18.468 119.617 21.132ZM150.909 17.856H151.773C151.773 17.856 150.333 26.496 141.549 26.496C137.481 26.496 134.601 23.508 133.629 20.664C133.341 19.728 133.197 18.792 133.197 17.856C133.197 14.004 135.717 10.584 139.389 9.50402C139.677 9.43202 140.685 9.18002 142.053 9.18002C146.589 9.18002 148.389 11.844 148.713 12.384C148.893 12.636 149.001 12.924 149.109 13.248C149.253 13.608 149.289 14.004 149.325 14.364C149.325 14.724 149.289 15.084 149.181 15.408C149.109 15.624 149.037 15.84 148.929 15.984C148.713 16.308 148.461 16.56 148.137 16.776C147.705 17.1 147.129 17.244 146.553 17.208C145.833 17.208 145.257 17.028 144.753 16.488C144.609 16.38 144.501 16.236 144.393 16.092C144.069 15.624 143.889 15.12 143.853 14.508C143.853 14.256 143.889 14.04 143.925 13.824L144.033 13.392C144.069 13.212 144.069 13.068 144.105 12.996C144.285 11.808 143.889 10.44 142.485 10.476C140.613 10.476 138.777 12.816 138.777 15.984C138.777 20.16 141.261 22.428 144.537 22.428C149.217 22.428 150.909 17.856 150.909 17.856ZM170.772 17.856H171.636C171.636 17.856 170.196 26.496 161.412 26.496C157.344 26.496 154.464 23.508 153.492 20.664C153.204 19.728 153.024 18.792 153.024 17.856C153.024 14.004 155.58 10.584 159.252 9.50402C159.54 9.43202 160.548 9.18002 161.916 9.18002C166.452 9.18002 168.216 11.844 168.576 12.384C169.764 14.112 169.188 16.164 168.324 17.1C165.948 19.656 161.268 19.008 158.928 18.468C159.72 21.456 162.024 22.428 164.4 22.428C169.08 22.428 170.772 17.856 170.772 17.856ZM158.64 16.056C158.64 16.596 158.676 17.064 158.748 17.532C166.164 16.956 165.516 10.476 162.348 10.476C160.26 10.476 158.64 13.032 158.64 16.056Z"/></clipPath><linearGradient id="paint0_diamond_36_31" x1="0" y1="0" x2="500" y2="500" gradientUnits="userSpaceOnUse">
<stop stop-color="#AB572D"/>
<stop offset="0.440625" stop-color="#EC9A52"/>
<stop offset="0.9999" stop-color="#A5470F"/>
<stop offset="1" stop-color="#AB5829"/>
</linearGradient>
</defs>
</svg>
